<svg width="32" height="32" viewBox="0 0 32 32" fill="none" xmlns="http://www.w3.org/2000/svg">
    <rect width="32" height="32" rx="7.11111" fill="#EB5757"/>
    <path d="M18 11.775C18 11.625 18.0543 11.4707 18.163 11.312C18.271 11.154 18.3917 11.05 18.525 11C19.0083 10.8333 19.4917 10.7083 19.975 10.625C20.4583 10.5417 20.9667 10.5 21.5 10.5C21.8333 10.5 22.1627 10.5207 22.488 10.562C22.8127 10.604 23.1333 10.6583 23.45 10.725C23.6 10.7583 23.729 10.8417 23.837 10.975C23.9457 11.1083 24 11.2583 24 11.425C24 11.7083 23.9083 11.9167 23.725 12.05C23.5417 12.1833 23.3083 12.2167 23.025 12.15C22.7917 12.1 22.546 12.0623 22.288 12.037C22.0293 12.0123 21.7667 12 21.5 12C21.0667 12 20.6417 12.0417 20.225 12.125C19.8083 12.2083 19.4083 12.3167 19.025 12.45C18.725 12.5667 18.4793 12.5583 18.288 12.425C18.096 12.2917 18 12.075 18 11.775ZM18 17.275C18 17.125 18.0543 16.9707 18.163 16.812C18.271 16.654 18.3917 16.55 18.525 16.5C19.0083 16.3333 19.4917 16.2083 19.975 16.125C20.4583 16.0417 20.9667 16 21.5 16C21.8333 16 22.1627 16.0207 22.488 16.062C22.8127 16.104 23.1333 16.1583 23.45 16.225C23.6 16.2583 23.729 16.3417 23.837 16.475C23.9457 16.6083 24 16.7583 24 16.925C24 17.2083 23.9083 17.4167 23.725 17.55C23.5417 17.6833 23.3083 17.7167 23.025 17.65C22.7917 17.6 22.546 17.5623 22.288 17.537C22.0293 17.5123 21.7667 17.5 21.5 17.5C21.0667 17.5 20.6417 17.5377 20.225 17.613C19.8083 17.6877 19.4083 17.7917 19.025 17.925C18.725 18.0417 18.4793 18.0373 18.288 17.912C18.096 17.7873 18 17.575 18 17.275ZM18 14.525C18 14.375 18.0543 14.2207 18.163 14.062C18.271 13.904 18.3917 13.8 18.525 13.75C19.0083 13.5833 19.4917 13.4583 19.975 13.375C20.4583 13.2917 20.9667 13.25 21.5 13.25C21.8333 13.25 22.1627 13.2707 22.488 13.312C22.8127 13.354 23.1333 13.4083 23.45 13.475C23.6 13.5083 23.729 13.5917 23.837 13.725C23.9457 13.8583 24 14.0083 24 14.175C24 14.4583 23.9083 14.6667 23.725 14.8C23.5417 14.9333 23.3083 14.9667 23.025 14.9C22.7917 14.85 22.546 14.8123 22.288 14.787C22.0293 14.7623 21.7667 14.75 21.5 14.75C21.0667 14.75 20.6417 14.7917 20.225 14.875C19.8083 14.9583 19.4083 15.0667 19.025 15.2C18.725 15.3167 18.4793 15.3083 18.288 15.175C18.096 15.0417 18 14.825 18 14.525ZM17 20.05C17.7333 19.7 18.471 19.4373 19.213 19.262C19.9543 19.0873 20.7167 19 21.5 19C22.1 19 22.6877 19.05 23.263 19.15C23.8377 19.25 24.4167 19.4 25 19.6V9.7C24.45 9.46667 23.8793 9.29167 23.288 9.175C22.696 9.05833 22.1 9 21.5 9C20.7167 9 19.9417 9.1 19.175 9.3C18.4083 9.5 17.6833 9.8 17 10.2V20.05ZM16 22.475C15.7667 22.475 15.546 22.446 15.338 22.388C15.1293 22.3293 14.9333 22.25 14.75 22.15C14.1 21.7667 13.4167 21.4793 12.7 21.288C11.9833 21.096 11.25 21 10.5 21C9.8 21 9.11267 21.0917 8.438 21.275C7.76267 21.4583 7.11667 21.7167 6.5 22.05C6.15 22.2333 5.81267 22.225 5.488 22.025C5.16267 21.825 5 21.5333 5 21.15V9.1C5 8.91667 5.046 8.74167 5.138 8.575C5.22933 8.40833 5.36667 8.28333 5.55 8.2C6.31667 7.8 7.11667 7.5 7.95 7.3C8.78333 7.1 9.63333 7 10.5 7C11.4667 7 12.4127 7.125 13.338 7.375C14.2627 7.625 15.15 8 16 8.5C16.85 8 17.7377 7.625 18.663 7.375C19.5877 7.125 20.5333 7 21.5 7C22.3667 7 23.2167 7.1 24.05 7.3C24.8833 7.5 25.6833 7.8 26.45 8.2C26.6333 8.28333 26.771 8.40833 26.863 8.575C26.9543 8.74167 27 8.91667 27 9.1V21.15C27 21.5333 26.8377 21.825 26.513 22.025C26.1877 22.225 25.85 22.2333 25.5 22.05C24.8833 21.7167 24.2373 21.4583 23.562 21.275C22.8873 21.0917 22.2 21 21.5 21C20.75 21 20.0167 21.096 19.3 21.288C18.5833 21.4793 17.9 21.7667 17.25 22.15C17.0667 22.25 16.871 22.3293 16.663 22.388C16.4543 22.446 16.2333 22.475 16 22.475Z" fill="black"/>
</svg>
    